<svg xmlns="http://www.w3.org/2000/svg" width="187" height="136" viewBox="0 0 187 136" fill="none">
  <path d="M77.2215 42.9811L123.038 40.3745L167.381 66.5008L167.686 93.8374L141.339 110.903L105.778 79.088L88.934 80.0263L85.8387 94.4968L126.366 145.532L202.742 163.375" stroke="white" stroke-opacity="0.3" stroke-width="5" stroke-miterlimit="10" stroke-linecap="round" stroke-linejoin="round"/>
  <path d="M76.4644 110.424L75.2767 112.44L32.3377 111.582L10.7781 74.4383L31.9548 38.2935L74.8938 39.1513L89.9197 63.7338" stroke="white" stroke-opacity="0.3" stroke-width="5" stroke-miterlimit="10" stroke-linecap="round" stroke-linejoin="round"/>
  <path d="M70.8945 63.4922L55.3945 53.9922L45.8945 59.4922V69.9922L60.8945 79.9922V89.9922L52.3945 96.4922L44.3945 91.4922M36.3945 86.4922L44.3945 91.4922M44.3945 91.4922L41.8945 94.9922" stroke="white" stroke-opacity="0.3" stroke-width="5" stroke-linecap="round"/>
  <path d="M63.3945 57.9922L65.8945 53.9922" stroke="white" stroke-opacity="0.3" stroke-width="5" stroke-linecap="round"/>
  <path d="M63.3945 37.9922L78.8379 24.3137C80.1841 23.1215 81.8268 22.3142 83.5931 21.977L132.625 12.6164C134.747 12.2112 136.944 12.5043 138.886 13.452L198.395 42.4922" stroke="white" stroke-opacity="0.3" stroke-width="5"/>
</svg>
