<svg width="432" height="112" viewBox="0 0 432 112" fill="none" xmlns="http://www.w3.org/2000/svg">
<rect x="26" y="23" width="380" height="66" rx="10" fill="white" fill-opacity="0.05"/>
<rect x="34" y="31" width="50" height="50" rx="2" fill="#626262"/>
<rect x="94" y="34" width="304" height="11" rx="5" fill="#626262"/>
<rect x="94" y="50" width="183" height="11" rx="5" fill="#626262"/>
<rect x="94" y="66" width="293" height="11" rx="5" fill="#626262"/>
<path d="M404.626 83.5999C410.479 77.7523 410.479 68.2563 404.626 62.3837C398.773 56.5362 389.268 56.5362 383.39 62.3837C377.537 68.2313 377.537 77.7274 383.39 83.5999C389.243 89.4475 398.748 89.4475 404.626 83.5999Z" stroke="#0C002B" stroke-width="3.5" stroke-linecap="round" stroke-linejoin="round"/>
<path d="M405.24 84.2559L423.996 102.998" stroke="#0C002B" stroke-width="3.5" stroke-linecap="round" stroke-linejoin="round"/>
<path d="M417.636 48.7715C418.117 47.3648 420.06 47.3222 420.63 48.6437L420.678 48.7723L421.327 50.6692C421.476 51.1043 421.716 51.5024 422.031 51.8367C422.347 52.171 422.731 52.4337 423.156 52.6072L423.331 52.6723L425.228 53.3201C426.634 53.8008 426.677 55.7444 425.356 56.3143L425.228 56.3625L423.331 57.0112C422.896 57.1597 422.497 57.3999 422.163 57.7155C421.828 58.0311 421.566 58.4147 421.392 58.8406L421.327 59.0142L420.679 60.912C420.199 62.3186 418.255 62.3612 417.686 61.0406L417.636 60.912L416.988 59.015C416.84 58.5798 416.6 58.1816 416.284 57.8471C415.969 57.5127 415.585 57.2498 415.159 57.0763L414.985 57.0112L413.089 56.3633C411.681 55.8826 411.639 53.9391 412.96 53.37L413.089 53.3201L414.985 52.6723C415.42 52.5236 415.819 52.2834 416.153 51.9678C416.487 51.6522 416.75 51.2686 416.923 50.8429L416.988 50.6692L417.636 48.7715ZM425.588 46C425.738 46 425.885 46.0422 426.013 46.1218C426.141 46.2013 426.243 46.3151 426.309 46.4501L426.348 46.5442L426.629 47.3689L427.455 47.6502C427.605 47.7014 427.738 47.7962 427.834 47.9225C427.931 48.0489 427.988 48.2011 427.998 48.36C428.009 48.5188 427.971 48.6771 427.891 48.8147C427.812 48.9524 427.693 49.0632 427.55 49.1332L427.455 49.1718L426.63 49.4531L426.349 50.2786C426.298 50.4292 426.203 50.5613 426.076 50.658C425.95 50.7547 425.798 50.8117 425.639 50.8217C425.48 50.8318 425.322 50.7945 425.184 50.7145C425.047 50.6346 424.936 50.5156 424.866 50.3726L424.827 50.2786L424.546 49.4539L423.721 49.1726C423.57 49.1214 423.438 49.0266 423.341 48.9002C423.244 48.7739 423.187 48.6216 423.177 48.4628C423.167 48.304 423.204 48.1457 423.284 48.008C423.364 47.8704 423.483 47.7596 423.626 47.6896L423.721 47.651L424.545 47.3697L424.827 46.5442C424.881 46.3854 424.983 46.2475 425.12 46.1499C425.256 46.0523 425.42 45.9999 425.588 46Z" fill="#FFB703"/>
</svg>
