<svg width="65" height="49" viewBox="0 0 65 49" fill="none" xmlns="http://www.w3.org/2000/svg">
<path d="M51.5449 6.37838C51.5449 6.37838 53.1893 8.32436 54.2579 10.2051C54.2579 10.2051 59.0267 3.22541 63.8798 1" stroke="url(#paint0_linear_134_395)" stroke-width="2" stroke-linecap="round" stroke-linejoin="round"/>
<path d="M43.0068 42.2387C43.5015 42.2387 43.9585 42.3251 44.377 42.4965C44.8018 42.6615 45.1697 42.896 45.4805 43.2006C45.791 43.5053 46.0319 43.8641 46.2031 44.2768C46.3806 44.6831 46.4697 45.1308 46.4697 45.6196C46.4697 46.1085 46.3806 46.5594 46.2031 46.9721C46.0319 47.3781 45.791 47.7339 45.4805 48.0385C45.1697 48.3431 44.8018 48.581 44.377 48.7524C43.9585 48.9175 43.5015 49.0004 43.0068 49.0004C42.5125 49.0004 42.0525 48.9175 41.6279 48.7524C41.2094 48.581 40.8416 48.3431 40.5244 48.0385C40.2139 47.7276 39.973 47.3686 39.8018 46.9623C39.6305 46.5496 39.5449 46.1019 39.5449 45.6196C39.5449 45.1373 39.6306 44.6926 39.8018 44.2866C39.9729 43.8739 40.2139 43.515 40.5244 43.2104C40.8415 42.8995 41.2094 42.6615 41.6279 42.4965C42.0525 42.3252 42.5125 42.2388 43.0068 42.2387ZM16.6826 46.5688L20.8389 42.2866H21.4287L18.502 45.3188L21.6289 48.9526H21.0391L18.1719 45.6713L16.6826 47.1987V48.9526H16.1973V42.2866H16.6826V46.5688ZM29.4639 48.9526H28.9414L28.0889 47.0766H24.2266L23.377 48.9526H22.8535L25.916 42.2866H26.4014L29.4639 48.9526ZM34.3926 42.2866C34.9503 42.2866 35.4288 42.3756 35.8281 42.5532C36.2276 42.7308 36.5352 42.9882 36.751 43.3246C36.9665 43.6545 37.0742 44.0575 37.0742 44.5336C37.0742 44.9968 36.9666 45.3973 36.751 45.7338C36.5352 46.0637 36.2276 46.3212 35.8281 46.5053C35.7275 46.5501 35.6214 46.588 35.5107 46.6215L37.1787 48.9526H36.627L35.0342 46.726C34.8334 46.7555 34.6197 46.7719 34.3926 46.7719H32.4893V48.9526H32.0049V42.2866H34.3926ZM43.0068 42.687C42.5823 42.687 42.1893 42.7596 41.8281 42.9057C41.4666 43.0517 41.1496 43.2581 40.877 43.5248C40.6106 43.7913 40.4013 44.1019 40.249 44.4575C40.103 44.8065 40.0303 45.1943 40.0303 45.6196C40.0303 46.0386 40.103 46.4262 40.249 46.7817C40.4013 47.1372 40.6107 47.4478 40.877 47.7143C41.1496 47.981 41.4666 48.1875 41.8281 48.3334C42.1893 48.4795 42.5824 48.5521 43.0068 48.5522C43.4316 48.5522 43.8252 48.4795 44.1865 48.3334C44.5479 48.1874 44.8625 47.9811 45.1289 47.7143C45.3951 47.4478 45.6013 47.1371 45.7471 46.7817C45.8993 46.4262 45.9746 46.0386 45.9746 45.6196C45.9746 45.1943 45.8993 44.8065 45.7471 44.4575C45.6013 44.102 45.3951 43.7913 45.1289 43.5248C44.8625 43.2581 44.5479 43.0517 44.1865 42.9057C43.8252 42.7596 43.4316 42.687 43.0068 42.687ZM24.4121 46.6674H27.9023L26.1543 42.8207L24.4121 46.6674ZM32.4893 46.3432H34.3926C35.1085 46.3431 35.6506 46.1847 36.0186 45.8676C36.3925 45.55 36.5801 45.1049 36.5801 44.5336C36.58 43.9561 36.3924 43.5115 36.0186 43.2006C35.6506 42.8834 35.1086 42.7251 34.3926 42.725H32.4893V46.3432ZM7.50195 38.6655H0V5.3266H7.50195V38.6655ZM22.0898 5.3266C30.4806 5.32673 34.6758 8.86971 34.6758 15.9526C34.6755 19.2997 33.4684 22.0127 31.0537 24.0893C28.6541 26.1501 25.4414 27.1799 21.417 27.1801H17.8408V38.6655H10.3389V5.3266H22.0898ZM46.6865 5.3266C47.6702 5.3266 48.5948 5.3708 49.459 5.46039V10.0971C49.459 11.1489 50.3107 12.0024 51.3613 12.0024H58.5615C58.7242 12.7388 58.8086 13.5357 58.8086 14.394C58.8086 15.5563 58.6314 16.6346 58.2754 17.6264C57.9193 18.6026 57.4158 19.4867 56.7656 20.2768C56.1156 21.067 55.3253 21.7494 54.3965 22.3227C53.4832 22.8961 52.4609 23.3451 51.3311 23.6703V23.7641C51.8261 23.9191 52.3072 24.1735 52.7715 24.5297C53.2359 24.8708 53.6848 25.2739 54.1182 25.7387C54.5517 26.2036 54.9624 26.7089 55.3496 27.2514C55.7516 27.7779 56.1155 28.2969 56.4404 28.808L62.7344 38.6655H54.1182L48.9404 30.0873C48.5535 29.4366 48.1812 28.8546 47.8252 28.3432C47.4693 27.8319 47.1048 27.3978 46.7334 27.0414C46.3775 26.6696 45.998 26.3897 45.5957 26.2036C45.2089 26.0023 44.7824 25.9028 44.3184 25.9028H42.2988V38.6655H34.7969V5.3266H46.6865ZM17.8408 21.4858H20.7891C24.7829 21.4857 26.7799 19.7331 26.7803 16.2309C26.7801 12.8059 24.7831 11.0923 20.7891 11.0922H17.8408V21.4858ZM42.2988 20.2299H45.5498C47.1591 20.2297 48.4516 19.7646 49.4268 18.8354C50.4176 17.89 50.9131 16.7186 50.9131 15.3237C50.9131 12.4102 49.1719 10.9529 45.6895 10.9526H42.2988V20.2299Z" fill="white"/>
<defs>
<linearGradient id="paint0_linear_134_395" x1="49.9944" y1="0.697201" x2="64.3909" y2="3.00788" gradientUnits="userSpaceOnUse">
<stop stop-color="#1345C3"/>
<stop offset="1" stop-color="#069A81"/>
</linearGradient>
</defs>
</svg>
